<?xml version="1.0" standalone="no"?>
<!DOCTYPE svg PUBLIC "-//W3C//DTD SVG 20010904//EN"
 "http://www.w3.org/TR/2001/REC-SVG-20010904/DTD/svg10.dtd">
<svg version="1.0" xmlns="http://www.w3.org/2000/svg"
 width="144.000000pt" height="144.000000pt" viewBox="0 0 144.000000 144.000000"
 preserveAspectRatio="xMidYMid meet">
<metadata>
Created by potrace 1.14, written by Peter Selinger 2001-2017
</metadata>
<g transform="translate(0.000000,144.000000) scale(0.100000,-0.100000)"
fill="#000000" stroke="none">
<path d="M591 1430 c-286 -60 -499 -262 -571 -540 -26 -102 -22 -275 10 -375
75 -235 241 -404 475 -482 71 -23 96 -26 215 -27 120 0 144 3 215 27 238 80
401 247 477 487 19 64 23 95 22 205 -1 112 -4 141 -27 210 -78 235 -247 401
-482 475 -79 24 -260 35 -334 20z m340 -63 c108 -37 194 -90 270 -167 207
-210 258 -518 128 -783 -172 -353 -614 -482 -960 -281 -161 94 -288 281 -324
479 -12 65 -5 192 14 266 64 249 245 433 493 499 106 29 274 23 379 -13z"/>
<path d="M642 1368 c-250 -29 -470 -212 -545 -453 -72 -233 -10 -484 162 -655
261 -259 664 -258 923 2 126 126 189 278 189 458 1 178 -64 335 -190 460 -147
146 -336 212 -539 188z m308 -78 c111 -44 221 -135 287 -238 186 -289 96 -679
-199 -858 -47 -29 -155 -74 -177 -74 -3 0 18 20 46 45 64 56 113 148 113 212
0 25 -9 62 -21 86 -23 45 -108 154 -158 201 -17 17 -31 32 -31 36 0 3 30 42
68 87 139 168 169 256 122 355 -29 62 -82 123 -136 154 -24 14 -44 27 -44 29
0 6 81 -16 130 -35z m-399 -10 c-88 -70 -130 -151 -128 -247 2 -55 7 -67 49
-129 26 -38 71 -94 100 -124 89 -93 87 -81 26 -152 -81 -93 -126 -165 -139
-222 -9 -45 -8 -58 10 -107 23 -61 90 -137 150 -170 l36 -20 -45 7 c-109 15
-237 83 -324 170 -315 315 -200 849 217 1009 93 36 107 32 48 -15z m274 -4
c132 -78 188 -202 136 -304 -24 -46 -106 -157 -156 -210 -29 -31 -35 -34 -40
-20 -4 10 2 30 14 47 12 17 31 50 42 75 18 41 18 48 5 87 -8 23 -34 71 -58
106 l-43 64 -23 -28 c-12 -15 -37 -56 -54 -90 -39 -79 -35 -123 18 -200 28
-41 34 -57 25 -66 -8 -8 -22 0 -57 33 -58 57 -136 155 -159 200 -52 100 25
252 160 317 62 30 126 26 190 -11z m-67 -273 c44 -71 47 -87 21 -138 -13 -25
-30 -52 -39 -60 -15 -14 -19 -12 -43 22 -46 67 -48 84 -21 144 23 48 42 79 49
79 2 0 16 -21 33 -47z m-13 -293 c10 -16 -16 -43 -28 -31 -11 11 -2 41 12 41
5 0 13 -5 16 -10z m87 -92 c129 -137 165 -210 143 -285 -29 -95 -128 -187
-217 -199 -39 -6 -57 -2 -102 20 -91 44 -166 146 -166 222 0 35 47 118 114
202 36 45 70 82 75 82 22 0 21 -24 -1 -58 -51 -76 -59 -93 -59 -125 -1 -17 4
-45 10 -61 14 -35 99 -156 109 -156 16 0 98 150 106 195 6 33 -12 81 -54 139
-19 26 -28 49 -24 59 3 9 8 17 11 17 3 0 27 -24 55 -52z m-36 -107 c17 -40 8
-77 -34 -149 -29 -51 -34 -48 -82 42 -34 66 -34 75 13 154 l32 53 28 -33 c16
-18 35 -48 43 -67z"/>
</g>
</svg>
