<?xml version="1.0" standalone="no"?>
<!DOCTYPE svg PUBLIC "-//W3C//DTD SVG 20010904//EN"
 "http://www.w3.org/TR/2001/REC-SVG-20010904/DTD/svg10.dtd">
<svg version="1.0" xmlns="http://www.w3.org/2000/svg"
 width="512.000000pt" height="512.000000pt" viewBox="0 0 512.000000 512.000000"
 preserveAspectRatio="xMidYMid meet">
<metadata>
Created by potrace 1.14, written by Peter Selinger 2001-2017
</metadata>
<g transform="translate(0.000000,512.000000) scale(0.100000,-0.100000)"
fill="#000000" stroke="none">
<path d="M2380 3965 c-166 -24 -283 -58 -417 -120 -88 -42 -243 -136 -277
-170 -14 -14 -33 -15 -138 -9 -185 10 -249 11 -291 0 -69 -16 -35 -29 84 -32
62 -1 121 -4 129 -6 36 -10 105 -32 109 -34 2 -2 -25 -34 -59 -71 -34 -37 -74
-85 -88 -105 -13 -21 -32 -38 -41 -39 -9 -1 -35 -2 -58 -4 -61 -3 -163 -26
-163 -36 0 -8 31 -14 53 -10 6 1 11 -14 9 -30 -1 -4 17 -6 39 -5 61 3 64 -11
23 -98 -20 -42 -39 -76 -43 -76 -3 0 -22 5 -41 11 -78 23 -182 29 -299 15 -84
-9 -111 -24 -45 -24 38 0 117 -6 163 -12 2 0 -1 -6 -7 -13 -9 -10 -1 -13 36
-13 54 -1 108 -9 145 -23 l25 -10 -24 -76 c-78 -246 -79 -559 -3 -812 95 -318
302 -598 572 -776 132 -87 347 -182 453 -201 16 -3 42 -8 57 -12 57 -12 84
-15 211 -21 90 -4 134 -10 144 -19 7 -8 20 -14 28 -14 8 0 17 -13 20 -29 6
-30 18 -39 62 -47 13 -3 46 -20 74 -39 28 -19 56 -36 64 -36 8 -1 19 -3 24 -4
6 -1 17 -3 25 -4 8 0 15 -10 15 -21 0 -12 6 -20 13 -19 23 4 277 -117 297
-142 19 -25 262 -129 300 -129 33 0 23 14 -45 64 -36 26 -65 51 -65 55 0 4 6
13 13 20 10 11 9 13 -4 8 -9 -3 -28 5 -44 19 -15 13 -31 24 -34 24 -3 0 -15
18 -25 41 -26 54 -45 63 -91 43 -35 -14 -37 -14 -42 6 -3 12 -14 20 -25 20
-11 0 -33 11 -50 25 -16 14 -36 25 -43 25 -7 0 -22 10 -32 23 -10 12 -36 34
-58 49 -22 15 -49 43 -59 63 -11 19 -27 35 -36 35 -46 0 -21 17 69 46 54 18
118 42 142 53 53 26 83 21 135 -20 20 -16 51 -33 70 -38 18 -5 48 -21 67 -35
49 -38 177 -70 177 -46 0 6 -5 10 -11 10 -7 0 -27 16 -46 35 -19 19 -44 37
-56 40 -12 3 -38 22 -56 40 -19 19 -38 35 -44 35 -5 0 -7 11 -5 25 3 14 1 26
-3 26 -5 1 -13 3 -19 4 -5 1 -14 3 -20 4 -21 2 -8 19 40 50 28 18 56 38 63 44
6 7 36 32 65 56 l52 43 58 -28 c31 -15 59 -30 62 -34 20 -27 231 -134 305
-154 88 -24 156 -22 85 2 -16 6 -35 22 -42 36 -6 15 -18 26 -26 26 -17 0 -69
56 -78 84 -4 12 -9 15 -13 7 -5 -7 -17 4 -34 29 -14 22 -22 40 -16 40 14 0 11
17 -3 18 -7 0 -23 3 -35 6 -13 2 -23 1 -23 -5 0 -15 -36 -11 -50 6 -7 8 -22
13 -34 10 -15 -3 -28 4 -44 24 l-22 29 38 49 c143 183 239 396 281 628 16 89
20 141 16 270 -4 193 -9 231 -41 345 -75 261 -204 477 -393 658 -59 56 -194
162 -207 162 -4 0 -15 6 -23 14 -73 62 -362 173 -501 192 -25 3 -54 8 -65 10
-60 12 -270 12 -355 -1z"/>
</g>
</svg>
